<?xml version="1.0" standalone="no"?>
<!DOCTYPE svg PUBLIC "-//W3C//DTD SVG 1.1//EN" "http://www.w3.org/Graphics/SVG/1.1/DTD/svg11.dtd" >
<svg xmlns="http://www.w3.org/2000/svg">
<metadata></metadata>
<defs>
<font id="exo_2.0black" horiz-adv-x="1275" >
<font-face units-per-em="2048" ascent="1638" descent="-410" />
<missing-glyph horiz-adv-x="430" />
<glyph horiz-adv-x="0" />
<glyph horiz-adv-x="682" />
<glyph unicode=" "  horiz-adv-x="430" />
<glyph unicode="&#x09;" horiz-adv-x="430" />
<glyph unicode="&#xa0;" horiz-adv-x="430" />
<glyph unicode="!" horiz-adv-x="673" d="M123 944v479h426v-479l-45 -479h-336zM141 147v84q0 85 31.5 116.5t116.5 31.5h96q85 0 116 -31.5t31 -116.5v-84q0 -85 -31 -116t-116 -31h-96q-85 0 -116.5 31t-31.5 116z" />
<glyph unicode="&#x22;" horiz-adv-x="804" d="M72 1413h295l-25 -467h-246zM438 1413h295l-24 -467h-246z" />
<glyph unicode="#" horiz-adv-x="1515" d="M45 373l49 250h236l35 204h-234l49 250h228l59 336h317l-59 -336h197l59 336h317l-59 -336h234l-50 -250h-227l-35 -204h225l-49 -250h-219l-65 -373h-318l66 373h-197l-65 -373h-318l66 373h-242zM647 623h197l35 204h-197z" />
<glyph unicode="$" horiz-adv-x="1218" d="M66 1026q0 115 26 191.5t86.5 126t154 72t234.5 26.5l23 174h319l-24 -189q137 -17 248 -57l-27 -285q-298 5 -485 5q-73 0 -98 -11t-25 -43q0 -29 25 -48.5t98 -47.5l243 -106q168 -76 237.5 -175t69.5 -256q0 -113 -23 -189.5t-78.5 -129.5t-145.5 -79t-226 -32 l-20 -198h-318l23 209q-163 18 -307 57l26 311q385 -10 500 -10q79 0 106 10t27 39t-19.5 46.5t-76.5 39.5l-268 123q-166 77 -235.5 174t-69.5 252z" />
<glyph unicode="%" horiz-adv-x="1886" d="M45 1020q0 164 36.5 255t115 129t219.5 38q143 0 222.5 -38t116 -128.5t36.5 -255.5t-36.5 -255.5t-116 -128.5t-222.5 -38q-141 0 -219.5 38t-115 129t-36.5 255zM358 1020q0 -97 5 -137.5t15.5 -51t37.5 -10.5q28 0 39 10.5t16.5 51t5.5 137.5q0 96 -5.5 136.5 t-16.5 51.5t-39 11q-27 0 -37.5 -11t-15.5 -51.5t-5 -136.5zM424 0l778 1413h258l-778 -1413h-258zM1098 393q0 124 19 204t64 129t113 69t174 20q143 0 222.5 -38t116 -128.5t36.5 -255.5t-36.5 -255.5t-116 -128.5t-222.5 -38q-106 0 -174 20t-113 69t-64 129t-19 204z M1411 393q0 -97 4.5 -136.5t15 -50.5t37.5 -11q28 0 39.5 10.5t17 51.5t5.5 136q0 96 -5.5 137t-17 51.5t-39.5 10.5q-27 0 -37.5 -11t-15 -50.5t-4.5 -137.5z" />
<glyph unicode="&#x26;" horiz-adv-x="1558" d="M72 360q0 169 65 261.5t215 105.5v12q-126 12 -180.5 89.5t-54.5 236.5q0 63 7 111.5t24 87t39 66.5t58.5 48t77 32.5t99.5 19.5t120 9.5t144 2.5q208 0 340 -29l-51 -287q-294 7 -301 7q-68 0 -89.5 -26t-21.5 -112q0 -82 22 -109.5t89 -27.5h241l23 182h365v-182h178 v-268h-178v-217q0 -40 15 -57t52 -17h103l47 -274q-53 -25 -146 -39.5t-162 -14.5q-196 0 -272 127q-79 -68 -174.5 -97.5t-251.5 -29.5q-237 0 -339.5 88.5t-102.5 300.5zM541 453q0 -93 19 -120t89 -26q122 3 250 31v252h-250q-69 0 -88.5 -25.5t-19.5 -111.5z" />
<glyph unicode="'" horiz-adv-x="438" d="M72 1413h295l-25 -467h-246z" />
<glyph unicode="(" horiz-adv-x="761" d="M51 639q0 419 156.5 656t492.5 323l50 -180q-153 -62 -218 -263t-65 -534q0 -327 65.5 -529.5t217.5 -269.5l-50 -180q-336 88 -492.5 324.5t-156.5 652.5z" />
<glyph unicode=")" horiz-adv-x="761" d="M12 -158q152 67 217.5 269.5t65.5 529.5q0 333 -65 534t-218 263l49 180q336 -86 493 -323t157 -656q0 -416 -157 -652.5t-493 -324.5z" />
<glyph unicode="*" horiz-adv-x="933" d="M47 1057l70 217l231 -105v-100l-51 -61zM154 795l235 262l-37 360h230l-33 -358l231 -264l-182 -136l-131 244l-129 -244zM586 1169l231 107l70 -219l-246 -49l-51 61z" />
<glyph unicode="+" horiz-adv-x="1071" d="M53 463v317h326v324h313v-324h326v-317h-326v-324h-313v324h-326z" />
<glyph unicode="," horiz-adv-x="522" d="M66 131l6 100q2 85 32.5 116.5t112.5 31.5h84q82 0 114.5 -32t33.5 -116v-131q0 -145 -33 -239t-105 -193l-159 51q34 101 38 281q-121 0 -124 131z" />
<glyph unicode="-" horiz-adv-x="776" d="M90 401v250h596v-250h-596z" />
<glyph unicode="." horiz-adv-x="530" d="M70 147v84q0 85 31 116.5t116 31.5h96q85 0 116.5 -31.5t31.5 -116.5v-84q0 -85 -31.5 -116t-116.5 -31h-96q-85 0 -116 31t-31 116z" />
<glyph unicode="/" horiz-adv-x="1204" d="M31 -162l805 1575h338l-805 -1575h-338z" />
<glyph unicode="0" horiz-adv-x="1349" d="M70 707q0 284 58.5 442t187 225.5t358.5 67.5q173 0 285.5 -35.5t186 -122t104 -225t30.5 -352.5t-30.5 -352.5t-104 -225.5t-186 -122.5t-285.5 -35.5q-172 0 -284.5 35.5t-185.5 122.5t-103.5 225.5t-30.5 352.5zM510 707q0 -112 5 -182.5t14.5 -117.5t30.5 -69 t45.5 -29.5t66.5 -7.5q73 0 105.5 26t47.5 110.5t15 269.5q0 113 -5 183t-14.5 116.5t-31.5 68.5t-47.5 29.5t-69.5 7.5q-42 0 -66.5 -7.5t-45.5 -29.5t-30.5 -68.5t-14.5 -117t-5 -182.5z" />
<glyph unicode="1" horiz-adv-x="954" d="M4 1276l361 137h442v-1413h-442v885q0 112 16 182l-326 -63z" />
<glyph unicode="2" horiz-adv-x="1228" d="M68 0v221q0 106 61 178l295 289q252 252 252 340q0 28 -25.5 35.5t-99.5 7.5q-256 0 -457 -4l-14 326q246 45 528 45q125 0 215 -16t162 -54t108.5 -109t36.5 -174q0 -117 -40 -199.5t-175 -217.5l-333 -316q84 24 188 21h393v-373h-1095z" />
<glyph unicode="3" horiz-adv-x="1183" d="M57 10l13 312q261 -11 393 -11q131 0 171 25t40 119q0 83 -31.5 112.5t-126.5 28.5l-272 -4v270h272q50 0 80 7.5t44 25.5t18 38t4 56q0 70 -31.5 92.5t-126.5 22.5h-404l-12 299q240 39 496 39q274 0 382.5 -71.5t108.5 -258.5q0 -168 -49 -252.5t-184 -103.5v-8 q150 -23 209 -104t61 -251q3 -228 -117 -325t-409 -97q-248 0 -529 39z" />
<glyph unicode="4" horiz-adv-x="1349" d="M31 498l342 915h409l-286 -792q-9 -23 1 -37.5t33 -14.5h220v349l71 217h332v-566h162v-241l-158 -41h-4v-287h-403v287h-568q-88 0 -135 65t-16 146z" />
<glyph unicode="5" horiz-adv-x="1163" d="M49 12l37 330q278 -12 371 -12q120 0 162.5 27t48.5 100q6 71 -37.5 101t-151.5 38l-258 33q-56 8 -90 46.5t-31 92.5l39 645h926l-14 -317h-582l-12 -148l262 -35q389 -48 389 -473q0 -465 -535 -465q-222 0 -524 37z" />
<glyph unicode="6" horiz-adv-x="1245" d="M72 694q0 120 9.5 216.5t30.5 171t49.5 130.5t71 95.5t89 65t110.5 40t129 20t150 5.5q233 0 387 -45l-17 -265h-370q-66 0 -103 -9.5t-62.5 -39.5t-35 -79t-12.5 -136q54 39 118 54.5t156 15.5q124 0 205.5 -24t129.5 -78.5t67.5 -132.5t19.5 -195q0 -98 -9.5 -170 t-33.5 -133.5t-64 -102t-102 -69.5t-146.5 -41.5t-197.5 -12.5q-111 0 -190.5 12.5t-146 44.5t-108.5 84t-71 133t-41 189t-12 256zM496 608q1 -78 2.5 -124t7.5 -86.5t15 -59.5t27 -32.5t39.5 -17t57.5 -3.5q33 0 55.5 3.5t37.5 15.5t23.5 24.5t12.5 41t5 53t1 71.5 q0 97 -26 123t-115 26q-72 0 -143 -35z" />
<glyph unicode="7" horiz-adv-x="1112" d="M29 1413h907q90 0 138.5 -62t19.5 -145l-424 -1206h-432l325 897q35 104 78 162h-594z" />
<glyph unicode="8" horiz-adv-x="1308" d="M76 352q0 355 258 377v8q-57 6 -101 37t-69.5 78t-38 100t-12.5 109q0 106 21.5 173t81 116.5t165.5 70.5t274 21q136 0 230.5 -14.5t156 -42t96 -76t47.5 -106.5t13 -142q0 -56 -12.5 -109t-38 -100t-69.5 -78t-101 -37v-8q258 -22 258 -377q0 -111 -24.5 -179.5 t-90.5 -116t-177 -66.5t-288 -21q-231 -1 -356 37t-174 118.5t-49 227.5zM492 434q0 -95 31.5 -124t133.5 -29q99 0 129.5 29t30.5 124q0 101 -30.5 132.5t-127.5 31.5q-103 0 -135 -32.5t-32 -131.5zM510 1001q0 -82 30 -107.5t122 -25.5q88 0 113.5 25t25.5 108 q0 97 -27.5 125.5t-116.5 28.5q-91 0 -119 -28.5t-28 -125.5z" />
<glyph unicode="9" horiz-adv-x="1245" d="M55 909q0 97 10.5 169.5t35 134t65.5 102t102.5 69t144.5 41.5t193 13q119 0 201.5 -12.5t148.5 -45.5t105 -83t65 -133.5t35.5 -188.5t9.5 -256q0 -162 -14 -278.5t-48.5 -200t-81 -134.5t-123 -80.5t-162 -40t-210.5 -10.5q-245 0 -419 45l18 267q133 -2 401 -2 q121 0 163 54.5t50 209.5q-102 -70 -274 -70q-119 0 -201.5 30t-128.5 88.5t-66 134t-20 177.5zM471 920q0 -96 25.5 -123t109.5 -27q72 0 142 37q-1 77 -2.5 123.5t-8 86t-15 58.5t-26 32.5t-38.5 17t-56 3.5q-27 0 -46.5 -3.5t-34 -9t-23.5 -19t-14.5 -27t-8.5 -39 t-3.5 -48.5t-0.5 -62z" />
<glyph unicode=":" horiz-adv-x="567" d="M72 150v83q0 85 31 116.5t116 31.5h96q85 0 116.5 -31.5t31.5 -116.5v-83q0 -85 -31.5 -116.5t-116.5 -31.5h-96q-85 0 -116 31.5t-31 116.5zM72 715v84q0 85 31 116t116 31h96q85 0 116.5 -31t31.5 -116v-84q0 -85 -31.5 -116.5t-116.5 -31.5h-96q-85 0 -116 31.5 t-31 116.5z" />
<glyph unicode=";" horiz-adv-x="567" d="M86 131l6 100q1 85 32.5 116.5t113.5 31.5h84q82 0 114 -32t33 -116v-131q0 -145 -33 -239t-104 -193l-160 51q35 104 39 281q-122 0 -125 131zM90 715v84q0 85 31.5 116t116.5 31h96q85 0 116 -31t31 -116v-84q0 -85 -31 -116.5t-116 -31.5h-96q-85 0 -116.5 31.5 t-31.5 116.5z" />
<glyph unicode="&#x3c;" horiz-adv-x="1034" d="M53 457v329l891 322v-334l-530 -153l530 -154v-334z" />
<glyph unicode="=" horiz-adv-x="1169" d="M92 248v299h985v-299h-985zM92 690v299h985v-299h-985z" />
<glyph unicode="&#x3e;" horiz-adv-x="1028" d="M90 133v334l524 154l-524 153v334l885 -322v-329z" />
<glyph unicode="?" horiz-adv-x="1097" d="M49 1401q19 4 67 13.5t65.5 12.5t59 10t69.5 9.5t73.5 6t95.5 4.5t111 1q237 0 351 -77.5t114 -239.5q0 -69 -25 -129.5t-62.5 -103t-83.5 -91t-87 -93.5t-73 -113t-42 -146h-336q-6 95 16 181t58.5 146t74 108t68 87.5t35.5 63.5q9 38 -17 52.5t-98 14.5h-424zM317 147 v84q0 85 31.5 116.5t116.5 31.5h96q85 0 116.5 -31.5t31.5 -116.5v-84q0 -85 -31.5 -116t-116.5 -31h-96q-85 0 -116.5 31t-31.5 116z" />
<glyph unicode="@" horiz-adv-x="1640" d="M80 553q0 125 4 208.5t18.5 162.5t35.5 126t62 89.5t91.5 63t131 36.5t172 20.5t222.5 4.5h332q205 0 305 -88t100 -299v-594h-313l-33 129q-122 -156 -319 -156q-87 0 -158 29t-115.5 89.5t-44.5 143.5v92q0 112 80.5 177t220.5 65h289v27q0 50 -22 71t-80 21h-242 q-166 -1 -216 -14q-72 -18 -98 -81q-30 -70 -32 -283v-40q0 -112 2.5 -177t24 -117t37.5 -73.5t76.5 -35t105 -14.5t156.5 -1h51h632v-262q-406 -35 -632 -35q-151 0 -255.5 4.5t-196.5 20t-149.5 36.5t-105 63.5t-71.5 90t-40.5 126.5t-21 163.5t-4.5 210.5zM950 578 q0 -26 20 -42t56 -16q67 0 135 43v111l-141 -10q-70 -6 -70 -58v-28z" />
<glyph unicode="A" horiz-adv-x="1398" d="M-18 0l366 1298q13 52 54.5 83.5t95.5 31.5h403q54 0 95.5 -31.5t54.5 -83.5l366 -1298h-452l-72 305h-387l-72 -305h-452zM578 616h243l-69 304q-21 105 -25 161h-55q-10 -84 -25 -161z" />
<glyph unicode="B" horiz-adv-x="1351" d="M106 0v1413q221 17 611 17q153 0 250 -16.5t162.5 -59t92.5 -113t27 -180.5q0 -155 -60.5 -232.5t-197.5 -89.5v-12q163 -13 234 -106.5t71 -268.5q0 -109 -29.5 -180.5t-95 -113t-157.5 -58t-230 -16.5q-448 0 -678 16zM541 285h164q92 0 120.5 30t28.5 127 q0 98 -29 129t-123 31h-161v-317zM541 862h157q77 0 102 26t25 109q0 81 -25.5 106t-105.5 25h-153v-266z" />
<glyph unicode="C" horiz-adv-x="1239" d="M66 707q0 272 63.5 430.5t201.5 229.5t376 71q158 0 255 -12.5t209 -43.5l-32 -323q-286 4 -432 4q-72 0 -108 -30t-51.5 -104.5t-15.5 -221.5t15.5 -221.5t51.5 -105t108 -30.5q296 0 462 17l33 -324q-108 -37 -219.5 -52.5t-275.5 -15.5q-179 0 -298.5 38t-197.5 126 t-111.5 225.5t-33.5 342.5z" />
<glyph unicode="D" horiz-adv-x="1435" d="M106 0v1413q378 21 605 21q125 0 217.5 -14t168.5 -47.5t126 -87t83.5 -135.5t48.5 -190t15 -253t-15 -253t-48.5 -190t-83.5 -135.5t-126 -87t-168.5 -47.5t-217.5 -14q-308 0 -605 20zM551 303l160 -2q78 0 117.5 34t56 119t16.5 253q0 102 -5.5 169t-17.5 115 t-35 73.5t-54 36.5t-78 11h-160v-809z" />
<glyph unicode="E" horiz-adv-x="1220" d="M96 313v787q0 142 92.5 231.5t239.5 89.5q179 0 265.5 -0.5t230.5 -7t239 -18.5l-20 -314h-518q-38 0 -61 -20.5t-23 -52.5v-138h528v-295h-528v-169q0 -33 23 -53.5t61 -20.5h518l20 -314q-95 -12 -239 -18.5t-230.5 -7t-265.5 -0.5q-147 0 -239.5 89.5t-92.5 231.5z " />
<glyph unicode="F" horiz-adv-x="1175" d="M102 0v1100q0 142 94 231.5t242 89.5q172 0 257 -0.5t224.5 -7.5t229.5 -20l-21 -312h-493q-41 0 -64.5 -20t-23.5 -53v-166h506v-295h-506v-547h-445z" />
<glyph unicode="G" horiz-adv-x="1368" d="M66 707q0 206 35 344t115.5 226.5t204.5 126.5t310 38q166 0 276.5 -13.5t225.5 -46.5l-33 -319q-312 4 -467 4q-82 0 -123.5 -30t-59.5 -106t-18 -224q0 -146 17 -221.5t54.5 -105.5t109.5 -30q71 0 153 12v451h426v-813h-327l-39 145q-58 -71 -159.5 -122.5 t-231.5 -51.5q-166 0 -267.5 72.5t-151.5 234.5t-50 429z" />
<glyph unicode="H" horiz-adv-x="1462" d="M109 0v1413h444v-508h356v508h445v-1413h-445v594h-356v-594h-444z" />
<glyph unicode="I" horiz-adv-x="657" d="M109 0v1413h440v-1413h-440z" />
<glyph unicode="J" horiz-adv-x="827" d="M20 25l48 278h96q62 0 91.5 17t29.5 55v1038h440v-1153q0 -137 -100 -213t-275 -76q-80 0 -181 14.5t-149 39.5z" />
<glyph unicode="K" horiz-adv-x="1384" d="M109 0v1413h444v-356q0 -91 -21 -180h78l295 536h477l-325 -553q-25 -45 -59.5 -78.5t-65.5 -46.5v-8q31 -13 74 -54t67 -85l330 -588h-494l-299 590h-73q16 -72 16 -129v-461h-444z" />
<glyph unicode="L" horiz-adv-x="1140" d="M102 313v1100h445v-987q0 -33 23.5 -53.5t62.5 -20.5h475l20 -332q-98 -13 -231.5 -20t-213.5 -7.5t-245 -0.5q-153 0 -244.5 88.5t-91.5 232.5z" />
<glyph unicode="M" horiz-adv-x="1949" d="M82 0l49 1260q6 153 156 153h383q144 0 168 -137l102 -561q12 -86 23 -211h18q21 180 25 211l96 561q24 137 170 137h391q150 0 156 -153l49 -1260h-400l-43 1081h-30l-140 -721q-21 -135 -168 -135h-229q-146 0 -170 135l-141 721h-31l-35 -1081h-399z" />
<glyph unicode="N" horiz-adv-x="1511" d="M106 0v1260q0 75 39.5 114t114.5 39h170q64 0 97 -28.5t75 -100.5l295 -463q57 -100 109 -241h14q-19 162 -21 256v577h408v-1259q0 -75 -39.5 -114.5t-114.5 -39.5h-170q-64 0 -98 29t-74 100l-307 485q-49 89 -94 242h-14q20 -143 20 -258v-598h-410z" />
<glyph unicode="O" horiz-adv-x="1447" d="M66 707q0 177 22.5 300.5t69 209t126.5 134.5t184.5 70t254.5 21q151 0 255.5 -21t185 -70t127 -134.5t69 -209t22.5 -300.5q0 -147 -15 -256.5t-48.5 -192.5t-83.5 -137.5t-126 -88t-168.5 -47.5t-217.5 -14q-150 0 -254.5 21t-184.5 70t-126.5 135t-69 209.5 t-22.5 300.5zM532 707q0 -168 16.5 -253t56.5 -119t118 -34t117.5 34t56 119t16.5 253q0 102 -5.5 169t-17.5 115t-35 73.5t-54 36.5t-78 11q-79 0 -118.5 -34t-56 -118.5t-16.5 -252.5z" />
<glyph unicode="P" horiz-adv-x="1323" d="M106 0v1413q219 21 599 21q139 0 234 -14.5t165.5 -46.5t109.5 -89t57.5 -136.5t18.5 -195.5q0 -141 -26.5 -232t-91 -146t-160.5 -77t-246 -22q-110 0 -215 12v-487h-445zM551 788h143q91 0 121.5 33t30.5 131q0 101 -30.5 134.5t-121.5 33.5h-143v-332z" />
<glyph unicode="Q" horiz-adv-x="1447" d="M66 707q0 177 22.5 300.5t69 209t126.5 134.5t184.5 70t254.5 21q151 0 255.5 -21t185 -70t127 -134.5t69 -209t22.5 -300.5q0 -147 -15 -256.5t-48.5 -192.5t-83.5 -137.5t-126 -88t-168.5 -47.5t-217.5 -14q-150 0 -254.5 21t-184.5 70t-126.5 135t-69 209.5 t-22.5 300.5zM508 -264l94 211q141 -52 295 -85t379 -67l-109 -358q-404 116 -659 299zM532 707q0 -168 16.5 -253t56.5 -119t118 -34t117.5 34t56 119t16.5 253q0 102 -5.5 169t-17.5 115t-35 73.5t-54 36.5t-78 11q-79 0 -118.5 -34t-56 -118.5t-16.5 -252.5z" />
<glyph unicode="R" horiz-adv-x="1384" d="M106 0v1413q219 21 601 21q161 0 269.5 -21t183.5 -70.5t109 -132t34 -206.5q0 -306 -287 -336v-13q191 -24 231 -221l111 -434h-465l-92 420q-12 57 -37.5 76.5t-83.5 19.5h-137v-516h-437zM543 829h153q96 0 128 29t32 117q0 87 -32 116t-128 29h-153v-291z" />
<glyph unicode="S" horiz-adv-x="1249" d="M61 1026q0 122 30 201t102 127.5t179 68t271 19.5q307 0 514 -72l-27 -285q-307 5 -497 5q-77 0 -104 -11t-27 -43q0 -29 25 -48.5t98 -47.5l256 -106q175 -75 246 -174t71 -257q0 -162 -53 -254t-177.5 -135t-346.5 -43q-274 0 -547 70l26 311q407 -10 514 -10 q84 0 112 10t28 39t-20 46.5t-77 39.5l-280 123q-172 77 -244 174t-72 252z" />
<glyph unicode="T" d="M20 1081v332h1235v-332h-395v-1081h-444v1081h-396z" />
<glyph unicode="U" horiz-adv-x="1443" d="M96 584v829h445v-829q0 -169 37 -226t145 -57q73 0 110.5 24t53.5 83.5t16 175.5v829h445v-829q0 -338 -135.5 -475.5t-467.5 -137.5q-242 0 -382 60t-203.5 192.5t-63.5 360.5z" />
<glyph unicode="V" horiz-adv-x="1372" d="M-4 1413h457l182 -919q8 -40 27 -162h49q9 74 26 162l183 919h456l-344 -1294q-12 -54 -53 -86.5t-98 -32.5h-389q-57 0 -98.5 32.5t-53.5 86.5z" />
<glyph unicode="W" horiz-adv-x="2054" d="M41 1413h438l72 -866q8 -140 8 -236h33q33 236 33 238l94 733q6 58 47.5 94.5t101.5 36.5h318q60 0 100.5 -36t48.5 -95l97 -737q6 -60 30 -234h33q0 57 10 232l70 870h438l-176 -1294q-7 -53 -50 -86t-101 -33h-377q-58 0 -102 33t-50 86l-96 780q-10 82 -17 207h-34 q-7 -125 -17 -209l-94 -778q-6 -53 -49.5 -86t-101.5 -33h-379q-58 0 -101.5 33t-50.5 86z" />
<glyph unicode="X" horiz-adv-x="1386" d="M-10 0l350 721l-322 692h439l237 -559l236 559h438l-321 -692l350 -721h-441l-262 594l-264 -594h-440z" />
<glyph unicode="Y" horiz-adv-x="1339" d="M-20 1413h456l178 -444q7 -17 13 -36.5t10.5 -43t7 -38.5t7 -43.5t5.5 -37.5h27q24 150 43 201l176 442h457l-467 -973v-440h-444v436z" />
<glyph unicode="Z" horiz-adv-x="1239" d="M59 0v311l611 791h-590v311h1081v-311l-610 -791h631v-311h-1123z" />
<glyph unicode="[" horiz-adv-x="743" d="M125 -131v1497q0 92 57.5 149.5t149.5 57.5h362v-262h-123q-20 0 -32.5 -12.5t-12.5 -32.5v-1297q0 -20 12.5 -32.5t32.5 -12.5h123v-262h-362q-101 0 -154 45.5t-53 161.5z" />
<glyph unicode="\" horiz-adv-x="1204" d="M31 1413h338l805 -1575h-338z" />
<glyph unicode="]" horiz-adv-x="743" d="M49 -76h123q20 0 32.5 12.5t12.5 32.5v1297q0 20 -12.5 32.5t-32.5 12.5h-123v262h363q92 0 149 -57.5t57 -149.5v-1497q0 -92 -57 -149.5t-149 -57.5h-363v262z" />
<glyph unicode="^" horiz-adv-x="1017" d="M61 848l295 489h312l288 -489l-165 -86l-271 321h-16l-279 -321z" />
<glyph unicode="_" horiz-adv-x="1087" d="M82 0h924v-250h-924v250z" />
<glyph unicode="`" horiz-adv-x="802" d="M82 1257l162 273l477 -307l-117 -176z" />
<glyph unicode="a" horiz-adv-x="1208" d="M43 262v103q0 123 90.5 193.5t247.5 70.5h319v8q-2 55 -28 78.5t-92 23.5q-225 0 -443 -10l-39 272q115 21 290 36.5t294 15.5q112 0 192.5 -20.5t139.5 -68.5t87.5 -129.5t28.5 -199.5v-635h-342l-38 143q-137 -172 -355 -172q-97 0 -175.5 31.5t-127.5 99t-49 160.5z M461 326q0 -29 22.5 -46.5t63.5 -17.5q69 0 153 51v109h-161q-37 0 -57.5 -17.5t-20.5 -46.5v-32z" />
<glyph unicode="b" horiz-adv-x="1265" d="M86 61v1373h430l4 -285v-21q0 -118 -31 -225q162 150 334 150q213 0 300 -122t87 -407q0 -91 -12 -164t-48 -147.5t-95 -124.5t-160 -81.5t-236 -31.5q-139 0 -315.5 22.5t-257.5 63.5zM516 272q68 -9 112 -9q12 0 23 1q46 3 70 24t35.5 75t11.5 159q0 128 -25 168.5 t-100 40.5q-58 0 -127 -26v-433z" />
<glyph unicode="c" horiz-adv-x="1081" d="M53 514q0 296 123.5 417.5t425.5 121.5q270 0 428 -76l-43 -266h-311q-100 0 -136 -40t-36 -157q0 -118 36 -158.5t136 -40.5q192 0 330 15l38 -269q-165 -86 -446 -86q-300 0 -422.5 121t-122.5 418z" />
<glyph unicode="d" horiz-adv-x="1269" d="M57 524q0 155 24.5 259.5t75.5 163t120 82.5t169 24q196 0 314 -86q-8 144 -8 223v244h430v-1434h-342l-35 168q-103 -193 -377 -193q-195 0 -283 139t-88 410zM500 528q0 -92 12.5 -138t34 -58.5t65.5 -12.5q76 0 140 31v395q-71 27 -134 27q-47 0 -70 -15t-35.5 -68 t-12.5 -161z" />
<glyph unicode="e" horiz-adv-x="1208" d="M51 504q0 302 131.5 425.5t450.5 123.5q190 0 308.5 -42t170.5 -121t53 -202v-6q-1 -140 -87 -202q-88 -62 -310 -62h-256q12 -63 50 -88t120 -25q191 0 416 23l39 -258q-186 -95 -502 -95q-313 0 -448.5 130t-135.5 399zM504 621h143q70 0 88.5 12.5t18.5 64.5 q0 48 -23.5 63t-85.5 15h-11q-72 0 -98 -26q-28 -28 -32 -129z" />
<glyph unicode="f" horiz-adv-x="874" d="M16 766v248l172 10v125q0 334 377 334q76 0 191 -7.5t184 -21.5l-41 -258h-180q-57 0 -77.5 -23t-20.5 -83v-66h243v-258h-243v-766h-433v766h-172z" />
<glyph unicode="g" horiz-adv-x="1236" d="M14 -80q0 76 35 127.5t125 89.5q-45 47 -52 112q-1 12 -1 23q0 52 25 98q30 57 85 83q-90 35 -131 102t-41 174q0 177 120.5 250.5t410.5 73.5q187 0 297 -29h344l-21 -158l-112 -18q16 -47 16 -119q0 -179 -117.5 -251t-408.5 -72q-84 0 -152 6q-11 -17 -12.5 -37 t17 -37t53.5 -19l372 -24q173 -12 250.5 -90t77.5 -232q0 -87 -22.5 -147.5t-65 -99t-117.5 -60t-164.5 -29.5t-222.5 -8q-148 0 -249.5 10.5t-168.5 30.5t-104 56.5t-51.5 81.5t-14.5 112zM416 -14q0 -39 37 -52.5t143 -13.5q118 0 157.5 11t39.5 44q0 13 -3.5 22t-14 15.5 t-20.5 10.5t-31.5 7t-39.5 5t-51 4l-182 14q-20 -15 -27.5 -29t-7.5 -38zM459 729q0 -54 26.5 -72t102.5 -18q75 0 101 18t26 72q0 53 -25.5 70.5t-101.5 17.5t-102.5 -17.5t-26.5 -70.5z" />
<glyph unicode="h" horiz-adv-x="1271" d="M88 0v1434h432v-306q0 -117 -20 -227q189 152 387 152q149 0 226 -73t77 -214v-766h-430v629q0 33 -17 47t-57 14q-89 0 -168 -24v-666h-430z" />
<glyph unicode="i" horiz-adv-x="620" d="M94 1262v104q0 127 125 127h182q125 0 125 -127v-104q0 -127 -125 -127h-182q-125 0 -125 127zM96 0v1024h428v-1024h-428z" />
<glyph unicode="j" horiz-adv-x="622" d="M-43 -201q79 79 110 153.5t31 166.5v905h428v-905q0 -164 -89.5 -305t-241.5 -203zM90 1282v104q0 127 125 127h182q125 0 125 -127v-104q0 -127 -125 -127h-182q-125 0 -125 127z" />
<glyph unicode="k" horiz-adv-x="1247" d="M88 0v1434h430v-549q0 -95 -16 -201h59l195 340h471l-215 -336q-21 -38 -56.5 -72.5t-62.5 -50.5v-8q24 -12 60 -53.5t59 -83.5l254 -420h-473l-234 442h-55q14 -93 14 -149v-293h-430z" />
<glyph unicode="l" horiz-adv-x="733" d="M90 258v1176h428v-1061q0 -39 25 -56.5t78 -17.5h69l47 -274q-42 -25 -135.5 -39.5t-165.5 -14.5q-162 0 -254 76t-92 211z" />
<glyph unicode="m" horiz-adv-x="1812" d="M88 0v1024h336l37 -150q89 94 173 136.5t193 42.5q208 0 267 -152q80 78 160.5 115t181.5 37q146 0 220.5 -73t74.5 -214v-766h-428v629q0 34 -15 47.5t-53 13.5q-60 0 -119 -24v-666h-414v629q0 33 -16 47t-53 14q-54 0 -117 -22v-668h-428z" />
<glyph unicode="n" horiz-adv-x="1271" d="M88 0v1024h338l39 -152q97 90 206.5 135.5t215.5 45.5q149 0 226 -73t77 -214v-766h-430v629q0 33 -17 47t-57 14q-89 0 -168 -24v-666h-430z" />
<glyph unicode="o" horiz-adv-x="1251" d="M53 510q0 299 129.5 421t444.5 122q314 0 442.5 -122t128.5 -421q0 -294 -128.5 -414.5t-442.5 -120.5q-315 0 -444.5 120.5t-129.5 414.5zM504 510q0 -105 10.5 -155.5t35.5 -69.5t77 -19q51 0 75.5 19t35 69.5t10.5 155.5q0 108 -10.5 160.5t-35 72t-75.5 19.5 q-52 0 -77 -20t-35.5 -72t-10.5 -160z" />
<glyph unicode="p" horiz-adv-x="1269" d="M88 -369v1393h344l35 -139q49 70 153 117t224 47q194 0 281 -139t87 -410q0 -156 -24 -260t-75 -163t-119.5 -82.5t-168.5 -23.5q-197 0 -313 86q6 -117 6 -189v-34v-203h-430zM518 279q71 -27 135 -27q35 0 54.5 7.5t35 32.5t21.5 73.5t6 130.5q0 108 -12.5 161.5 t-34 67.5t-64.5 14q-32 0 -59.5 -6t-40.5 -11.5t-41 -19.5v-423z" />
<glyph unicode="q" horiz-adv-x="1265" d="M55 504q0 102 12 179t47.5 149.5t95.5 118.5t159.5 74t236.5 28q139 0 316 -22.5t258 -63.5v-1336h-430v267v23q0 116 28 226q-66 -73 -154 -122.5t-184 -49.5q-206 0 -295.5 133.5t-89.5 395.5zM498 506q0 -80 11.5 -120t36.5 -54.5t75 -14.5q54 0 129 27v412 q-68 9 -113 9q-12 0 -23 -1q-47 -3 -70.5 -24t-34.5 -74.5t-11 -159.5z" />
<glyph unicode="r" horiz-adv-x="925" d="M88 0v1024h336l39 -150q191 179 399 179h60l-37 -394h-109q-109 0 -258 -20v-639h-430z" />
<glyph unicode="s" horiz-adv-x="1132" d="M49 754q0 72 24 125.5t78 93.5t147 60t226 20q127 0 279 -12.5t246 -32.5l-27 -250h-404h-26q-88 0 -107.5 -3.5t-19.5 -21.5q0 -13 11 -18t54 -16q10 -3 16.5 -4.5t18 -4.5t21.5 -6l235 -59q141 -40 206 -110t65 -200q0 -192 -112 -265t-384 -73q-285 0 -533 43l27 250 h365q153 0 187 4.5t34 26.5q0 4 -1 7.5t-3.5 6t-6 5t-10 5t-13 4t-18 5t-22 6t-27 7t-32.5 9.5l-226 62q-82 24 -136 57t-82.5 77t-39 90.5t-10.5 111.5z" />
<glyph unicode="t" horiz-adv-x="897" d="M20 766v248l173 8v270h432v-268h247v-258h-247v-393q0 -40 20.5 -57t67.5 -17h108l47 -274q-61 -26 -163.5 -40t-184.5 -14q-150 0 -237.5 76.5t-87.5 210.5v508h-175z" />
<glyph unicode="u" horiz-adv-x="1259" d="M82 258v766h430v-629q0 -34 18 -48.5t58 -14.5q72 0 151 24v668h432v-1024h-337l-39 150q-101 -92 -200 -135.5t-210 -43.5q-150 0 -226.5 73t-76.5 214z" />
<glyph unicode="v" horiz-adv-x="1230" d="M-6 1024h455l124 -565q13 -71 29 -193h27q3 20 30 193l123 565h455l-303 -924q-14 -46 -50 -73t-85 -27h-367q-49 0 -85 27t-50 73z" />
<glyph unicode="w" horiz-adv-x="1794" d="M16 1024h426l74 -575q12 -122 16 -183h25q2 27 5 57.5t7 68t6 57.5l58 450q6 55 47 90t98 35h236q57 0 98 -35t47 -92l55 -448q2 -23 10.5 -86t10.5 -97h25l18 183l72 575h428l-209 -915q-10 -49 -48 -79t-91 -30h-302q-58 0 -99.5 35.5t-47.5 91.5l-59 465 q-4 37 -13 180h-26q-5 -83 -15 -180l-59 -465q-6 -56 -47.5 -91.5t-99.5 -35.5h-297q-53 0 -91.5 30t-48.5 79z" />
<glyph unicode="x" horiz-adv-x="1241" d="M-6 0l297 522l-275 502h424l181 -358l180 358h424l-275 -502l297 -522h-426l-200 385l-201 -385h-426z" />
<glyph unicode="y" horiz-adv-x="1232" d="M-6 1024h457l120 -565q12 -78 27 -193h18q16 58 43 193l121 565h457l-326 -995q-14 -45 -32.5 -87t-44 -88t-58.5 -84.5t-73 -74.5t-90.5 -60.5t-107.5 -39.5q-55 -15 -123 -15h-5q-71 1 -148 17l-28 231q121 26 191 64.5t110 107.5h-70q-49 0 -85 27t-50 73z" />
<glyph unicode="z" horiz-adv-x="1107" d="M59 0v276l476 472h-463v276h964v-276l-475 -472h488v-276h-990z" />
<glyph unicode="{" horiz-adv-x="735" d="M45 539v266q57 19 69 30q22 19 23 88v13v338q0 170 134 256t405 43v-262q-39 0 -52.5 -0.5t-34 -4t-26.5 -11.5t-11 -23t-5 -39v-256q3 -139 -48.5 -212.5t-189.5 -92.5q137 -36 190.5 -108.5t55.5 -188.5v-379q0 -51 19.5 -62t85.5 -10h24v-262q-271 -43 -405 43 t-134 256v455q0 58 -17 77.5t-71 40.5q-8 3 -12 5z" />
<glyph unicode="|" horiz-adv-x="565" d="M133 -346v1945h299v-1945h-299z" />
<glyph unicode="}" horiz-adv-x="735" d="M51 -76h24q66 -1 85.5 10t19.5 62v379q2 116 55.5 188.5t190.5 108.5q-138 19 -189.5 92.5t-48.5 212.5v256q0 24 -5 39t-11 23t-26.5 11.5t-34 4t-52.5 0.5v262q271 43 405 -43t134 -256v-338q0 -51 7.5 -74t22 -32.5t52.5 -21.5q2 0 3 -0.5t3 -1t4 -1.5v-266 q-61 -25 -75 -37q-25 -24 -25 -86v-455q0 -170 -134 -256t-405 -43v262z" />
<glyph unicode="~" horiz-adv-x="1024" d="M92 424q-30 171 23.5 259.5t150.5 86.5q42 -1 134.5 -20.5t185.5 -42t108 -25.5q13 -3 22.5 -2.5t16 1t10.5 7t6.5 10t3.5 16.5t1 20v26h178q31 -170 -21 -259.5t-153 -86.5q-43 1 -133.5 20t-183 41.5t-113.5 26.5q-41 7 -49.5 -6.5t-8.5 -62.5v-9h-178z" />
<glyph unicode="&#xa2;" horiz-adv-x="1107" d="M51 711q0 281 111 403.5t377 132.5l20 166h320l-23 -184q106 -19 182 -55l-43 -246h-315q-123 0 -164 -42.5t-41 -174.5q0 -134 41 -176.5t164 -42.5q203 0 334 14l39 -248q-131 -69 -342 -82l-21 -176h-317l22 188q-186 36 -265 158.5t-79 364.5z" />
<glyph unicode="&#xa3;" horiz-adv-x="1234" d="M72 848h143l-16 194q-9 118 13.5 195t81.5 122t144 63t215 18q198 0 480 -21l-21 -317h-379q-57 0 -81 -19.5t-19 -60.5l18 -174h310l-11 -205h-276l2 -20q7 -82 -15.5 -142.5t-46.5 -84.5t-76 -63q-9 -7 -14 -11q57 20 176 20h478v-342h-1100v342q101 48 133 115.5 t22 165.5l-2 20h-155z" />
<glyph unicode="&#xa5;" horiz-adv-x="1454" d="M37 1413h457l178 -424q9 -21 16.5 -49.5t11 -46.5t8.5 -55t7 -47h26q2 11 6 38.5t6.5 43.5t7 39t10.5 42.5t13 36.5l177 422h456l-307 -639h141v-225h-1044l-4 225h141zM203 487h1048v-225h-301v-262h-444v262h-299z" />
<glyph unicode="&#xa8;" horiz-adv-x="892" d="M102 1266v129q0 80 80 80h142q79 0 79 -80v-129q0 -80 -79 -80h-142q-80 0 -80 80zM489 1266v129q0 80 80 80h142q80 0 80 -80v-129q0 -80 -80 -80h-142q-80 0 -80 80z" />
<glyph unicode="&#xa9;" horiz-adv-x="1601" d="M55 707q0 158 58 295t158 233.5t237.5 151.5t292.5 55q208 0 378 -93.5t268.5 -262.5t98.5 -379t-98.5 -379t-268.5 -263t-378 -94q-207 0 -377.5 94t-269.5 263t-99 379zM264 707q0 -152 73 -276t196 -192.5t268 -68.5q147 0 269.5 68.5t194.5 192.5t72 276t-72 275.5 t-194.5 192t-269.5 68.5q-146 0 -268.5 -68.5t-195.5 -192t-73 -275.5zM412 709q0 221 89 310t308 89q97 0 156 -7.5t129 -25.5l-23 -223q-1 -2 -120.5 -1t-141.5 1q-50 0 -61 -24t-11 -119q0 -96 11 -120t61 -24q195 0 281 6l22 -221q-125 -43 -303 -43q-219 0 -308 90 t-89 312z" />
<glyph unicode="&#xab;" horiz-adv-x="1130" d="M43 469v90l324 404l225 -142l-176 -307l176 -319l-225 -142zM524 469v90l324 404l225 -142l-176 -307l176 -319l-225 -142z" />
<glyph unicode="&#xad;" horiz-adv-x="776" d="M90 401v250h596v-250h-596z" />
<glyph unicode="&#xae;" horiz-adv-x="1009" d="M49 987q0 189 133.5 322t323.5 133q189 0 322 -133t133 -322q0 -190 -133 -323.5t-322 -133.5q-190 0 -323.5 133t-133.5 324zM168 987q0 -141 100 -240.5t238 -99.5q137 0 236.5 100t99.5 240q0 139 -99.5 238.5t-236.5 99.5q-138 0 -238 -99.5t-100 -238.5zM303 784 v426q77 7 211 7q113 0 163 -29.5t50 -102.5q0 -88 -100 -98v-4q69 -4 84 -70l34 -129h-184l-22 123q-6 15 -12.5 19t-24.5 4h-25v-146h-174zM477 1034h31q27 0 35 7t8 26t-7.5 24t-35.5 5h-31v-62z" />
<glyph unicode="&#xb4;" horiz-adv-x="802" d="M82 1223l477 307l162 -273l-522 -210z" />
<glyph unicode="&#xb8;" horiz-adv-x="538" d="M29 -502l45 160q40 0 66 3t53 13t41.5 31.5t17.5 56.5q2 17 -11 20.5t-76 2.5h-56l38 147q127 15 209 15t119 -34t33 -114q-5 -114 -71.5 -189.5t-172 -102.5t-235.5 -9z" />
<glyph unicode="&#xbb;" horiz-adv-x="1130" d="M57 195l176 319l-176 307l226 142l323 -404v-90l-323 -416zM539 195l176 319l-176 307l225 142l323 -404v-90l-323 -416z" />
<glyph unicode="&#x2c6;" horiz-adv-x="976" d="M49 1233l287 272h311l277 -288l-99 -142l-325 191h-17l-331 -191z" />
<glyph unicode="&#x2da;" horiz-adv-x="651" d="M61 1341q0 105 78.5 180.5t186.5 75.5t186 -75.5t78 -180.5q0 -107 -78 -181.5t-186 -74.5t-186.5 75t-78.5 181zM236 1341q0 -38 26.5 -65t63.5 -27t63.5 27t26.5 65q0 37 -27 65t-63 28t-63 -28t-27 -65z" />
<glyph unicode="&#x2dc;" horiz-adv-x="942" d="M92 1137q-31 170 25.5 261.5t148.5 84.5q81 -6 201.5 -44.5t144.5 -43.5q13 -3 22.5 -2.5t16 1t10.5 7t6.5 10t3.5 16.5t1 20v26h178q31 -165 -21.5 -259t-152.5 -88q-80 6 -200 44.5t-148 43.5q-41 7 -49.5 -6t-8.5 -62v-3v-3v-3h-178z" />
<glyph unicode="&#x401;" horiz-adv-x="1224" d="M100 313v787q0 142 92.5 231.5t239.5 89.5q179 0 265.5 -0.5t230.5 -7t239 -18.5l-20 -314h-518q-38 0 -61 -20.5t-23 -52.5v-138h528v-295h-528v-169q0 -33 23 -53.5t61 -20.5h518l20 -314q-95 -12 -239 -18.5t-230.5 -7t-265.5 -0.5q-147 0 -239.5 89.5t-92.5 231.5z M317 1642v130q0 79 80 79h142q79 0 79 -79v-130q0 -79 -79 -79h-142q-80 0 -80 79zM705 1642v130q0 79 79 79h142q80 0 80 -79v-130q0 -79 -80 -79h-142q-79 0 -79 79z" />
<glyph unicode="&#x402;" horiz-adv-x="1591" d="M20 1081v332h1223v-332h-389v-231q84 37 181 58.5t161 21.5q134 0 211.5 -39.5t115.5 -135t38 -263.5q0 -121 -29 -213.5t-78.5 -151t-123 -95.5t-155.5 -51.5t-182 -13.5l-41 307q95 24 128.5 68.5t33.5 130.5q0 76 -17 95.5t-79 19.5q-84 0 -164 -23v-565h-444v1081 h-390z" />
<glyph unicode="&#x403;" horiz-adv-x="1134" d="M111 0v1100q0 142 92 231.5t237 89.5q167 0 248.5 -0.5t215 -7.5t222.5 -20l-20 -312h-465q-39 0 -62.5 -20t-23.5 -53v-1008h-444zM414 1651l477 307l162 -272l-523 -211z" />
<glyph unicode="&#x404;" horiz-adv-x="1243" d="M66 707q0 273 64 431t204 229t381 71q159 0 259.5 -12.5t211.5 -43.5l-33 -323q-290 4 -438 4q-94 0 -135.5 -42.5t-51.5 -160.5h551v-274h-553q7 -137 48 -186.5t141 -49.5q287 0 448 17l33 -324q-105 -37 -213 -52.5t-268 -15.5q-241 0 -381 71.5t-204 229.5t-64 431z " />
<glyph unicode="&#x405;" horiz-adv-x="1249" d="M61 1026q0 122 30 201t102 127.5t179 68t271 19.5q307 0 514 -72l-27 -285q-307 5 -497 5q-77 0 -104 -11t-27 -43q0 -29 25 -48.5t98 -47.5l256 -106q175 -75 246 -174t71 -257q0 -162 -53 -254t-177.5 -135t-346.5 -43q-274 0 -547 70l26 311q407 -10 514 -10 q84 0 112 10t28 39t-20 46.5t-77 39.5l-280 123q-172 77 -244 174t-72 252z" />
<glyph unicode="&#x406;" horiz-adv-x="673" d="M117 0v1413h440v-1413h-440z" />
<glyph unicode="&#x407;" horiz-adv-x="673" d="M-10 1642v130q0 79 80 79h141q80 0 80 -79v-130q0 -79 -80 -79h-141q-80 0 -80 79zM117 0v1413h440v-1413h-440zM377 1642v130q0 79 80 79h141q80 0 80 -79v-130q0 -79 -80 -79h-141q-80 0 -80 79z" />
<glyph unicode="&#x408;" horiz-adv-x="835" d="M20 25l48 278h96q62 0 91.5 17t29.5 55v1038h440v-1153q0 -137 -100 -213t-275 -76q-80 0 -181 14.5t-149 39.5z" />
<glyph unicode="&#x409;" horiz-adv-x="2013" d="M20 293q40 7 64 14.5t51 24.5t46.5 47t35.5 76q28 81 45 227.5t35 396.5q24 334 348 334h676v-485h90q162 0 266 -22t172 -77t95.5 -143.5t27.5 -226.5q0 -139 -27 -230.5t-88.5 -146t-149 -76.5t-218.5 -22q-384 0 -594 16h-12v1122h-72q-87 0 -96 -94 q-16 -182 -25.5 -273t-28.5 -213t-43 -206q-67 -231 -204.5 -308.5t-362.5 -37.5zM1321 291h90q72 0 93.5 34.5t21.5 147.5q0 114 -22 150t-93 36h-90v-368z" />
<glyph unicode="&#x40a;" horiz-adv-x="1994" d="M117 0v1413h446v-518h305v518h439v-520h110q124 0 211.5 -13.5t152 -43.5t102 -81.5t55.5 -123.5t18 -174q0 -138 -26.5 -229.5t-85.5 -145.5t-141.5 -76t-205.5 -22q-406 0 -616 16h-13v604h-305v-604h-446zM1307 291h110q58 0 75 33t17 137q0 100 -17 132t-75 32h-110 v-334z" />
<glyph unicode="&#x40b;" horiz-adv-x="1658" d="M20 1081v332h1223v-332h-389v-194q90 29 192.5 46t159.5 17q204 0 300 -89t96 -279v-582h-447v485q0 63 -21.5 83t-93.5 20h-186v-588h-444v1081h-390z" />
<glyph unicode="&#x40c;" horiz-adv-x="1394" d="M117 0v1413h444v-356q0 -96 -20 -180h45q127 0 171 78.5t121 397.5q4 13 5.5 20t4.5 18.5t5 21.5h450q-19 -64 -51 -174q-26 -92 -38 -133t-33.5 -102.5t-33.5 -84.5t-35 -59.5t-43 -48t-52.5 -29t-68 -25t-85.5 -14.5v-12q66 -10 107.5 -21t81 -32t63.5 -49.5 t50.5 -77.5t47.5 -111.5t49 -155t60 -205.5q14 -52 22 -79h-462q-94 349 -119 421q-40 113 -87 144q-38 25 -124 25h-47q16 -72 16 -129v-461h-444zM518 1651l477 307l162 -272l-522 -211z" />
<glyph unicode="&#x40d;" horiz-adv-x="1503" d="M117 0v1413h422v-627q0 -80 -23 -229h14q39 120 91 217l344 639h421v-1413h-421v649q0 83 22 219h-14q-38 -127 -86 -217l-346 -651h-424zM336 1686l162 272l477 -307l-117 -176z" />
<glyph unicode="&#x40e;" d="M-14 1413h454l160 -686q3 -22 33 -22h18l185 708h454l-307 -1030q-61 -211 -143 -303t-246 -109q-151 -15 -436 29l47 303q197 -4 220 -2q80 4 103 40q5 9 9 19l8 33h-84q-92 0 -143 49.5t-78 143.5zM281 1862l198 26q0 -65 38 -93t130 -28q90 0 128 28t38 93l199 -26 q17 -91 -22.5 -171.5t-130 -131t-212.5 -50.5t-213 50.5t-130.5 131t-22.5 171.5z" />
<glyph unicode="&#x40f;" horiz-adv-x="1476" d="M117 0v1413h444v-1122h354v1122h445v-1413h-447l-16 -309h-303l-16 309h-461z" />
<glyph unicode="&#x410;" horiz-adv-x="1398" d="M-18 0l366 1298q13 52 54.5 83.5t95.5 31.5h403q54 0 95.5 -31.5t54.5 -83.5l366 -1298h-452l-72 305h-387l-72 -305h-452zM578 616h243l-69 304q-21 105 -25 161h-55q-10 -84 -25 -161z" />
<glyph unicode="&#x411;" horiz-adv-x="1327" d="M115 0v1413q255 17 526 17q246 0 545 -17l-33 -317h-594v-230h141q112 0 195.5 -8.5t150.5 -29.5t111.5 -53.5t74 -81.5t42 -113t12.5 -150q0 -129 -30.5 -215.5t-98 -137.5t-162.5 -72t-235 -21q-412 0 -633 16h-12zM559 291h141q89 0 115.5 29.5t26.5 123.5 q0 95 -27 124.5t-115 29.5h-141v-307z" />
<glyph unicode="&#x412;" horiz-adv-x="1359" d="M115 0v1413q221 17 610 17q153 0 250 -16.5t162.5 -59t92.5 -113t27 -180.5q0 -155 -60.5 -232.5t-197.5 -89.5v-12q163 -13 234.5 -106.5t71.5 -268.5q0 -109 -29.5 -180.5t-95 -113t-157.5 -58t-230 -16.5q-448 0 -678 16zM549 285h164q92 0 120.5 30t28.5 127 q0 99 -29 129.5t-122 30.5h-162v-317zM549 862h158q77 0 102 26t25 109q0 81 -26 106t-106 25h-153v-266z" />
<glyph unicode="&#x413;" horiz-adv-x="1134" d="M111 0v1100q0 142 92 231.5t237 89.5q167 0 248.5 -0.5t215 -7.5t222.5 -20l-20 -312h-465q-39 0 -62.5 -20t-23.5 -53v-1008h-444z" />
<glyph unicode="&#x414;" horiz-adv-x="1603" d="M23 291h155q123 351 172 809q14 137 109.5 225t240.5 88h684v-1122h195v-600h-322l-30 309h-852l-31 -309h-321v600zM596 291h344v831h-84q-85 0 -94 -98q-30 -278 -66 -440.5t-100 -292.5z" />
<glyph unicode="&#x415;" horiz-adv-x="1224" d="M100 313v787q0 142 92.5 231.5t239.5 89.5q179 0 265.5 -0.5t230.5 -7t239 -18.5l-20 -314h-518q-38 0 -61 -20.5t-23 -52.5v-138h528v-295h-528v-169q0 -33 23 -53.5t61 -20.5h518l20 -314q-95 -12 -239 -18.5t-230.5 -7t-265.5 -0.5q-147 0 -239.5 89.5t-92.5 231.5z " />
<glyph unicode="&#x416;" horiz-adv-x="1982" d="M14 0q101 366 127 443q51 150 113 206q57 52 179 75q20 3 44 7v12q-177 26 -231.5 103t-137.5 379q-33 118 -53 188h451q16 -56 42 -151q69 -256 101 -320.5t101 -64.5h51q-21 89 -21 180v356h422v-356q0 -91 -18 -180h45q70 0 102 63.5t103 320.5q27 96 43 152h450 q-20 -70 -53 -188q-32 -118 -46.5 -167t-40 -116t-44.5 -89t-55.5 -51t-77.5 -39.5t-105 -19.5v-12q55 -9 91.5 -17t72 -26.5t57 -35.5t46.5 -56t40.5 -76t38.5 -107t41.5 -136.5t48.5 -177.5q17 -64 27 -99h-465q-20 70 -54 186q-82 284 -112.5 344t-103.5 60h-47 q16 -72 16 -129v-461h-424v461q0 44 19 129h-49q-70 0 -101 -61t-118 -360q-31 -106 -50 -169h-465z" />
<glyph unicode="&#x417;" horiz-adv-x="1200" d="M41 61l33 289q292 -47 483 -47q76 0 101.5 28t25.5 111q0 87 -25.5 115.5t-103.5 30.5l-311 6v276l307 7q63 2 83.5 25t20.5 95q0 68 -21 90.5t-85 22.5q-177 0 -453 -31l-33 303q206 48 517 48q148 0 242 -16.5t157 -59t89 -113t26 -180.5q0 -155 -57.5 -232.5 t-188.5 -89.5v-12q156 -13 223.5 -106t67.5 -269q0 -87 -19 -150t-56 -105t-98 -67t-138 -35.5t-183 -10.5q-201 0 -337 17t-267 60z" />
<glyph unicode="&#x418;" horiz-adv-x="1503" d="M117 0v1413h422v-627q0 -80 -23 -229h14q39 120 91 217l344 639h421v-1413h-421v649q0 83 22 219h-14q-38 -127 -86 -217l-346 -651h-424z" />
<glyph unicode="&#x419;" horiz-adv-x="1503" d="M117 0v1413h422v-627q0 -80 -23 -229h14q39 120 91 217l344 639h421v-1413h-421v649q0 83 22 219h-14q-38 -127 -86 -217l-346 -651h-424zM403 1864h261q-11 -90 15.5 -124t90.5 -34q63 0 89 34t15 124h261q17 -88 -22.5 -169.5t-130.5 -133.5t-212 -52q-122 0 -213 52 t-131 133.5t-23 169.5z" />
<glyph unicode="&#x41a;" horiz-adv-x="1394" d="M117 0v1413h444v-356q0 -96 -20 -180h45q127 0 171 78.5t121 397.5q4 13 5.5 20t4.5 18.5t5 21.5h450q-19 -64 -51 -174q-26 -92 -38 -133t-33.5 -102.5t-33.5 -84.5t-35 -59.5t-43 -48t-52.5 -29t-68 -25t-85.5 -14.5v-12q66 -10 107.5 -21t81 -32t63.5 -49.5 t50.5 -77.5t47.5 -111.5t49 -155t60 -205.5q14 -52 22 -79h-462q-94 349 -119 421q-40 113 -87 144q-38 25 -124 25h-47q16 -72 16 -129v-461h-444z" />
<glyph unicode="&#x41b;" horiz-adv-x="1454" d="M-8 334q43 4 68.5 9.5t54.5 17.5t47.5 35.5t30.5 58.5q57 165 86 604q11 175 105 264.5t267 89.5h686v-1413h-444v1122h-86q-103 0 -109 -94q-36 -486 -98 -692q-35 -120 -92.5 -199t-130 -115t-163 -44.5t-191.5 12.5z" />
<glyph unicode="&#x41c;" horiz-adv-x="1966" d="M90 0l49 1260q6 153 156 153h383q144 0 168 -137l102 -561q12 -86 23 -211h18q21 180 25 211l96 561q24 137 170 137h391q150 0 156 -153l49 -1260h-399l-43 1081h-31l-139 -721q-21 -135 -168 -135h-230q-146 0 -170 135l-141 721h-31l-35 -1081h-399z" />
<glyph unicode="&#x41d;" horiz-adv-x="1478" d="M117 0v1413h444v-508h357v508h444v-1413h-444v594h-357v-594h-444z" />
<glyph unicode="&#x41e;" horiz-adv-x="1447" d="M66 707q0 177 22.5 300.5t69 209t126.5 134.5t184.5 70t254.5 21q151 0 255.5 -21t185 -70t127 -134.5t69 -209t22.5 -300.5q0 -147 -15 -256.5t-48.5 -192.5t-83.5 -137.5t-126 -88t-168.5 -47.5t-217.5 -14q-150 0 -254.5 21t-184.5 70t-126.5 135t-69 209.5 t-22.5 300.5zM532 707q0 -168 16.5 -253t56.5 -119t118 -34t117.5 34t56 119t16.5 253q0 102 -5.5 169t-17.5 115t-35 73.5t-54 36.5t-78 11q-79 0 -118.5 -34t-56 -118.5t-16.5 -252.5z" />
<glyph unicode="&#x41f;" horiz-adv-x="1470" d="M117 0v1413h1237v-1413h-445v1122h-348v-1122h-444z" />
<glyph unicode="&#x420;" horiz-adv-x="1331" d="M115 0v1413q219 21 598 21q139 0 234 -14.5t165.5 -46.5t109.5 -89t57.5 -136.5t18.5 -195.5q0 -141 -26.5 -232t-91 -146t-160.5 -77t-246 -22q-110 0 -215 12v-487h-444zM559 788h143q91 0 121.5 33t30.5 131q0 101 -30.5 134.5t-121.5 33.5h-143v-332z" />
<glyph unicode="&#x421;" horiz-adv-x="1239" d="M66 707q0 272 63.5 430.5t201.5 229.5t376 71q158 0 255 -12.5t209 -43.5l-32 -323q-286 4 -432 4q-72 0 -108 -30t-51.5 -104.5t-15.5 -221.5t15.5 -221.5t51.5 -105t108 -30.5q296 0 462 17l33 -324q-108 -37 -219.5 -52.5t-275.5 -15.5q-179 0 -298.5 38t-197.5 126 t-111.5 225.5t-33.5 342.5z" />
<glyph unicode="&#x422;" d="M20 1081v332h1235v-332h-395v-1081h-444v1081h-396z" />
<glyph unicode="&#x423;" d="M-14 1413h454l160 -686q3 -22 33 -22h18l185 708h454l-307 -1030q-61 -211 -143 -303t-246 -109q-151 -15 -436 29l47 303q197 -4 220 -2q80 4 103 40q5 9 9 19l8 33h-84q-92 0 -143 49.5t-78 143.5z" />
<glyph unicode="&#x424;" horiz-adv-x="1796" d="M33 727q0 159 33.5 266.5t111 180.5t197.5 109.5t301 49.5v170h444v-170q181 -13 301 -49.5t197.5 -109.5t111 -180.5t33.5 -266.5q0 -204 -63 -325t-201.5 -182.5t-378.5 -78.5v-170h-444v170q-355 23 -499 153.5t-144 432.5zM477 727q0 -76 8 -121.5t32 -79.5t66.5 -50 t112.5 -23v569q-71 -8 -113 -25t-66 -54t-32 -85.5t-8 -130.5zM1100 453q70 7 112 23t66.5 50t32.5 80t8 121q0 81 -8 130.5t-32.5 86t-66.5 53.5t-112 25v-569z" />
<glyph unicode="&#x425;" horiz-adv-x="1386" d="M-10 0l350 721l-322 692h439l237 -559l236 559h438l-321 -692l350 -721h-441l-262 594l-264 -594h-440z" />
<glyph unicode="&#x426;" horiz-adv-x="1503" d="M117 0v1413h444v-1122h316v1122h444v-1122h156v-600h-322l-31 309h-1007z" />
<glyph unicode="&#x427;" horiz-adv-x="1421" d="M72 811v602h444v-506q-4 -61 20.5 -81.5t100.5 -20.5q125 0 223 29v579h445v-1413h-445v537q-97 -45 -202 -70t-185 -25q-207 0 -304 89.5t-97 279.5z" />
<glyph unicode="&#x428;" horiz-adv-x="2086" d="M117 0v1413h434v-1122h276v1122h433v-1122h276v1122h434v-1413h-1853z" />
<glyph unicode="&#x429;" horiz-adv-x="2146" d="M117 0v1413h434v-1122h272v1122h434v-1122h273v1122h434v-1122h154v-600h-322l-31 309h-1648z" />
<glyph unicode="&#x42a;" horiz-adv-x="1609" d="M18 1081v332h875v-485h113q163 0 267.5 -22t172.5 -77t95.5 -144t27.5 -228q0 -138 -28 -229.5t-89.5 -145.5t-149 -76t-217.5 -22q-413 0 -626 16h-13v1081h-428zM893 291h113q73 0 94.5 34.5t21.5 147.5q0 114 -21.5 150t-94.5 36h-113v-368z" />
<glyph unicode="&#x42b;" horiz-adv-x="1955" d="M117 0v1413h446v-485h115q164 0 268.5 -22t173 -77t96 -144t27.5 -228q0 -138 -28 -229.5t-89.5 -145.5t-149 -76t-218.5 -22q-416 0 -629 16h-12zM563 291h115q75 0 97 34.5t22 147.5q0 114 -22.5 150t-96.5 36h-115v-368zM1393 0v1413h446v-1413h-446z" />
<glyph unicode="&#x42c;" horiz-adv-x="1298" d="M117 0v1413h444v-485h125q166 0 271.5 -22t174.5 -77t97 -144t28 -228q0 -138 -28 -229.5t-90.5 -145.5t-151.5 -76t-221 -22q-422 0 -637 16h-12zM561 291h125q79 0 103 34.5t24 147.5q0 114 -24 150t-103 36h-125v-368z" />
<glyph unicode="&#x42d;" horiz-adv-x="1243" d="M47 43l33 324q162 -17 448 -17q100 0 141 49.5t48 186.5h-553v274h551q-10 118 -51.5 160.5t-135.5 42.5q-148 0 -438 -4l-33 323q111 31 211.5 43.5t259.5 12.5q241 0 381 -71t204.5 -229.5t64.5 -430.5q0 -205 -34.5 -342.5t-113 -225.5t-200 -126t-302.5 -38 q-160 0 -268 15.5t-213 52.5z" />
<glyph unicode="&#x42e;" horiz-adv-x="2091" d="M117 0v1413h446v-539h207q12 167 50 276t113 174.5t179 91.5t260 26q124 0 215.5 -14t167 -47.5t125 -87.5t83 -137t48 -192.5t14.5 -256.5t-14.5 -256.5t-48 -192.5t-83 -137.5t-125 -88t-167 -47.5t-215.5 -14q-162 0 -268 28t-181.5 98.5t-111.5 188t-45 298.5h-203 v-584h-446zM1198 707q0 -170 14 -253.5t50.5 -118t109.5 -34.5q76 0 113.5 34.5t53 118.5t15.5 253t-15.5 253t-53 118t-113.5 34q-74 0 -110 -34.5t-50 -117.5t-14 -253z" />
<glyph unicode="&#x42f;" horiz-adv-x="1359" d="M27 0l106 434q38 196 225 221v13q-274 30 -274 336q0 124 33 206.5t106.5 132t179 70.5t261.5 21q369 0 581 -21v-1413h-444v516h-111q-55 0 -77.5 -19t-32.5 -77l-88 -420h-465zM530 975q0 -88 28.5 -117t115.5 -29h127v291h-127q-88 0 -116 -28.5t-28 -116.5z" />
<glyph unicode="&#x430;" horiz-adv-x="1216" d="M45 262v103q0 123 90.5 193.5t247.5 70.5h319v8q-2 55 -28 78.5t-92 23.5q-226 0 -443 -10l-39 272q115 21 290 36.5t294 15.5q228 0 338.5 -94t110.5 -324v-635h-342l-39 143q-137 -172 -355 -172q-97 0 -175.5 31.5t-127.5 99t-49 160.5zM463 326q0 -29 22.5 -46.5 t63.5 -17.5q69 0 153 51v109h-161q-37 0 -57.5 -17.5t-20.5 -46.5v-32z" />
<glyph unicode="&#x431;" horiz-adv-x="1259" d="M72 651q0 121 9 214t33.5 184t66 157.5t108.5 121t160 87.5q73 26 163 37t160.5 12t157.5 13.5t157 40.5l58 -326q-69 -36 -148 -51t-138.5 -13.5t-134 -1.5t-128.5 -18q-121 -34 -160 -84q-18 -21 -28.5 -47.5t-14.5 -46t-10 -62.5h8q68 64 150 91.5t200 27.5 q256 0 359.5 -110.5t103.5 -370.5q0 -277 -125 -404t-420 -127q-120 0 -212 19t-154 47t-104.5 81.5t-65.5 101t-34.5 128.5t-14 140t-2.5 159zM512 510q0 -105 10.5 -155.5t35 -69.5t75.5 -19t75.5 19t35 69.5t10.5 155.5q0 100 -10.5 148t-34.5 65.5t-74 17.5 q-54 0 -79 -18t-34.5 -65t-9.5 -148z" />
<glyph unicode="&#x432;" horiz-adv-x="1214" d="M94 -6v1030q199 12 565 12q267 0 369 -56.5t102 -215.5q0 -111 -53 -167t-174 -65v-10q143 -9 205.5 -75.5t62.5 -192.5q0 -156 -104.5 -214t-345.5 -58q-406 0 -627 12zM498 250h147q58 0 79 18t21 72q0 50 -21.5 67t-80.5 17h-145v-174zM498 631h145q54 0 72 14.5 t18 56.5q0 43 -19 57.5t-75 14.5h-141v-143z" />
<glyph unicode="&#x433;" horiz-adv-x="1009" d="M88 0v770q0 140 72.5 205t226.5 65q148 0 222.5 -1t193.5 -9t196 -24l-20 -299h-395q-38 0 -54 -14t-16 -48v-645h-426z" />
<glyph unicode="&#x434;" horiz-adv-x="1378" d="M20 -279v558h125q67 197 119 495q21 126 93.5 188t207.5 62h613v-745h176v-558h-285l-29 279h-706l-29 -279h-285zM526 279h248v483h-57q-71 0 -82 -72q-44 -252 -109 -411z" />
<glyph unicode="&#x435;" horiz-adv-x="1208" d="M51 504q0 302 131.5 425.5t450.5 123.5q190 0 308.5 -42t170.5 -121t53 -202q2 -145 -86.5 -207.5t-310.5 -62.5h-256q12 -63 50 -88t120 -25q191 0 416 23l39 -258q-186 -95 -502 -95q-313 0 -448.5 130t-135.5 399zM504 621h143q70 0 88.5 12.5t18.5 64.5 q0 48 -23.5 63t-85.5 15q-81 2 -109 -26t-32 -129z" />
<glyph unicode="&#x436;" horiz-adv-x="1753" d="M14 0v1l1 1v1v1l1 1v1v1v1l1 1v1v1l1 1v1v1v1l1 1v1v1l1 1q84 285 116 356q38 83 90 111q37 20 147 36h1h1l1 1h1h1h1h1h1q20 3 31 5v13q-124 16 -160 32q-50 22 -82 84q-26 52 -90 261q-20 65 -33 106h422q80 -260 102 -305q21 -45 49 -52q11 -3 42 -3h43 q-15 68 -15 133v227h375v-227q0 -54 -14 -133h39q62 0 84.5 38t92.5 267q4 12 6 18.5t5 17t6 19.5h422q-13 -42 -35 -114q-24 -79 -33.5 -112.5t-30 -83t-24.5 -63.5t-30 -40.5t-32 -30t-44.5 -15.5t-54 -13.5t-73.5 -9.5q-4 -1 -6 -1v-13q127 -20 158 -30q61 -21 97 -83 q38 -65 107 -294q10 -34 36 -121h-434v1l-1 1v1v1l-1 1v1v1l-1 1v1v1l-1 1v1v1l-1 1v1v1l-1 1v1v1l-1 1v1v1l-1 1v1v1l-1 1q-90 281 -113 327q-20 39 -46 44h-2h-82q10 -52 10 -82v-315h-377v315q0 35 12 82h-82q-30 -4 -55 -65t-114 -332h-435z" />
<glyph unicode="&#x437;" horiz-adv-x="1095" d="M39 20l27 275q247 -25 448 -25q63 0 80.5 10.5t17.5 55.5q0 34 -16.5 42t-83.5 11l-344 8v240l342 8q52 3 66 10.5t14 38.5q0 37 -16 45.5t-80 8.5q-188 0 -408 -25l-27 274q187 56 406 56q104 0 174.5 -3.5t137 -14t106.5 -30t70.5 -51t43.5 -76.5t13 -108 q0 -120 -53 -174.5t-173 -63.5v-10q140 -9 203.5 -74t63.5 -192q0 -54 -11.5 -96t-31 -72.5t-54 -51.5t-72 -33.5t-94 -19.5t-111.5 -9.5t-132 -2.5q-296 0 -506 49z" />
<glyph unicode="&#x438;" horiz-adv-x="1294" d="M94 0v1024h381v-428q0 -65 -16 -166h10q17 59 73 150l3 3t2 3l2 4l270 434h381v-1024l-383 -4v401q0 71 17 193h-11q-30 -100 -86 -184l-262 -406h-381z" />
<glyph unicode="&#x439;" horiz-adv-x="1294" d="M94 0v1024h381v-428q0 -65 -16 -166h10q17 59 73 150l3 3t2 3l2 4l270 434h381v-1024l-383 -4v401q0 71 17 193h-11q-30 -100 -86 -184l-262 -406h-381zM283 1479h260q-11 -90 15.5 -124t90.5 -34q63 0 89.5 34t15.5 124h260q17 -88 -22.5 -169.5t-130.5 -133.5t-212 -52 q-92 0 -168 31t-122.5 80.5t-67 113.5t-8.5 130z" />
<glyph unicode="&#x43a;" horiz-adv-x="1216" d="M94 0v1024h428v-223q0 -69 -14 -135h37q30 0 45.5 2t32 11t25 26.5t19.5 49t22 78.5t27 116q11 48 17 75h434q-16 -55 -42 -146q-27 -94 -37.5 -131t-31.5 -84.5t-31.5 -58.5t-42 -28.5t-57.5 -21t-83 -12.5l-21 -3v-13q125 -20 147 -27q60 -18 94 -73q37 -60 97 -274 q11 -39 43 -152h-446q-70 265 -92 325t-58 66h-94q10 -48 10 -80v-311h-428z" />
<glyph unicode="&#x43b;" horiz-adv-x="1273" d="M6 303q14 2 38 3.5t37.5 3t31.5 6t28.5 12t20 22t14.5 35.5q26 103 45 373q18 266 281 266h678v-1024h-428v745h-54q-80 0 -86 -71q-16 -157 -51 -404q-11 -83 -45.5 -143t-83 -93t-112 -48t-130 -13t-141.5 17z" />
<glyph unicode="&#x43c;" horiz-adv-x="1683" d="M82 0l20 879q3 145 148 145h352q140 0 158 -133l59 -320q6 -29 15 -155h12q2 17 5 71t9 84l55 320q18 133 160 133h361q142 0 145 -145l23 -879h-390l-22 713h-23l-84 -432q-21 -131 -159 -131h-170q-141 0 -162 131l-86 432h-23l-14 -713h-389z" />
<glyph unicode="&#x43d;" horiz-adv-x="1286" d="M94 0v1024h424v-348h252v348h422v-1024h-422v399h-252v-399h-424z" />
<glyph unicode="&#x43e;" horiz-adv-x="1251" d="M53 510q0 299 129.5 421t444.5 122q314 0 442.5 -122t128.5 -421q0 -294 -128.5 -414.5t-442.5 -120.5q-315 0 -444.5 120.5t-129.5 414.5zM504 510q0 -105 10.5 -155.5t35.5 -69.5t77 -19q51 0 75.5 19t35 69.5t10.5 155.5q0 108 -10.5 160.5t-35 72t-75.5 19.5 q-52 0 -77 -20t-35.5 -72t-10.5 -160z" />
<glyph unicode="&#x43f;" horiz-adv-x="1271" d="M94 0v1026h1084v-1026h-418v748h-248v-748h-418z" />
<glyph unicode="&#x440;" d="M94 -369v1393h344l35 -139q49 70 153 117t224 47q194 0 281.5 -139.5t87.5 -409.5q0 -156 -24 -260.5t-75.5 -163t-120 -82t-168.5 -23.5q-197 0 -313 86q8 -146 6 -223v-203h-430zM524 279q71 -27 135 -27q35 0 54.5 7.5t35 32.5t21.5 73.5t6 130.5q0 108 -12.5 161.5 t-33.5 67.5t-64 14q-32 0 -59.5 -6t-41 -11.5t-41.5 -19.5v-423z" />
<glyph unicode="&#x441;" horiz-adv-x="1081" d="M53 514q0 296 123.5 417.5t425.5 121.5q270 0 428 -76l-43 -266h-311q-100 0 -136 -40t-36 -157q0 -118 36 -158.5t136 -40.5q192 0 330 15l38 -269q-165 -86 -446 -86q-300 0 -422.5 121t-122.5 418z" />
<glyph unicode="&#x442;" horiz-adv-x="1099" d="M23 705v319h1054v-319h-313v-705h-428v705h-313z" />
<glyph unicode="&#x443;" horiz-adv-x="1232" d="M-6 1024h457l120 -565q12 -78 27 -193h18q18 67 43 193l121 565h457l-326 -995q-32 -107 -74.5 -184t-96.5 -124.5t-108.5 -75t-127.5 -48.5q-187 -52 -422 0l33 272q207 -3 303 45q47 23 86 86h-72q-49 0 -85 27t-50 73z" />
<glyph unicode="&#x444;" horiz-adv-x="1597" d="M51 510q0 262 127.5 385.5t427.5 148.5v390h383v-387q300 -26 427.5 -150.5t127.5 -386.5q0 -259 -127.5 -381t-427.5 -147v-351h-383v351q-300 26 -427.5 148.5t-127.5 379.5zM457 510q0 -127 35.5 -182t134.5 -72v516q-99 -18 -134.5 -75t-35.5 -187zM969 256 q99 17 134.5 72t35.5 182q0 130 -35.5 187t-134.5 75v-516z" />
<glyph unicode="&#x445;" horiz-adv-x="1241" d="M-6 0l297 522l-275 502h424l181 -358l180 358h424l-275 -502l297 -522h-426l-200 385l-201 -385h-426z" />
<glyph unicode="&#x446;" horiz-adv-x="1349" d="M94 0v1024h424v-745h217v745h424v-745h164v-558h-285l-28 279h-916z" />
<glyph unicode="&#x447;" horiz-adv-x="1239" d="M63 532v492h429v-367q0 -32 16 -46.5t55 -14.5q80 0 154 29v399h428v-1024h-428v340q-145 -51 -301 -51q-183 0 -268 58.5t-85 184.5z" />
<glyph unicode="&#x448;" horiz-adv-x="1781" d="M94 0v1024h414v-745h194v745h377v-745h195v745h414v-1024h-1594z" />
<glyph unicode="&#x449;" horiz-adv-x="1871" d="M94 0v1024h414v-745h192v745h377v-745h193v745h413v-745h162v-558h-284l-29 279h-1438z" />
<glyph unicode="&#x44a;" horiz-adv-x="1398" d="M23 717v307h745v-322h70q155 0 252.5 -16t161 -57t89 -108.5t25.5 -174.5q0 -104 -26.5 -173.5t-84.5 -110t-139.5 -57.5t-202.5 -17q-354 0 -546 12h-13v717h-331zM768 262h70q61 0 78.5 18.5t17.5 81.5q0 66 -16.5 84.5t-79.5 18.5h-70v-203z" />
<glyph unicode="&#x44b;" horiz-adv-x="1724" d="M94 0v1024h414v-322h72q155 0 252.5 -16t162 -57t90 -108.5t25.5 -174.5q0 -104 -26.5 -173.5t-84.5 -110t-140 -57.5t-204 -17q-355 0 -549 12h-12zM508 262h72q63 0 80.5 18.5t17.5 81.5q0 67 -17 85t-81 18h-72v-203zM1198 0v1024h432v-1024h-432z" />
<glyph unicode="&#x44c;" horiz-adv-x="1153" d="M94 0v1024h412v-322h80q157 0 255.5 -16t163 -57t90 -108.5t25.5 -174.5q0 -104 -26.5 -173.5t-85.5 -110t-142.5 -57.5t-206.5 -17q-359 0 -553 12h-12zM506 262h80q66 0 85 18.5t19 81.5q0 66 -19 84.5t-85 18.5h-80v-203z" />
<glyph unicode="&#x44d;" horiz-adv-x="1155" d="M43 39l31 264q169 -8 420 -8q96 0 130 18t42 93h-514v225h510q-13 63 -48.5 81.5t-119.5 18.5q-60 0 -144 -0.5t-145 -0.5t-121 1l-33 258q184 64 443 64q171 0 284 -27.5t187 -92.5t105.5 -167.5t31.5 -257.5q0 -297 -136.5 -417t-471.5 -120q-264 0 -451 68z" />
<glyph unicode="&#x44e;" horiz-adv-x="1781" d="M94 0v1024h430v-362h146q12 118 45.5 194t97.5 119.5t149.5 60.5t215.5 17q104 0 179.5 -9.5t139.5 -33t105 -62.5t70 -100.5t41.5 -144.5t12.5 -195q0 -108 -12.5 -188.5t-41.5 -140t-70 -98t-105 -62t-139.5 -33t-179.5 -9.5q-106 0 -181.5 11t-136.5 38t-99 73.5 t-61.5 116t-31.5 167.5h-144v-383h-430zM1057 514q0 -62 2 -96.5t8 -62t19.5 -38.5t32.5 -16.5t52 -5.5q31 0 49 5t31.5 17t19.5 38.5t8.5 62.5t2.5 96q0 77 -3.5 117t-16.5 65.5t-33 32t-58 6.5q-28 0 -45 -2.5t-30.5 -12.5t-20.5 -23t-11.5 -40.5t-5.5 -58.5t-1 -84z" />
<glyph unicode="&#x44f;" horiz-adv-x="1202" d="M25 0l75 328q31 93 197 104v10q-63 13 -108.5 42t-69.5 68t-34.5 79t-10.5 84q0 71 8.5 121t31 89t57.5 62.5t92.5 39t130 21t177.5 5.5q383 0 537 -17v-1036h-418v322h-90q-44 0 -59 -9t-19 -39l-59 -274h-438zM492 688q0 -72 17 -93.5t71 -21.5h110v185h-110 q-53 0 -70.5 -14t-17.5 -56z" />
<glyph unicode="&#x451;" horiz-adv-x="1208" d="M51 504q0 302 131.5 425.5t450.5 123.5q190 0 308.5 -42t170.5 -121t53 -202q2 -145 -86.5 -207.5t-310.5 -62.5h-256q12 -63 50 -88t120 -25q191 0 416 23l39 -258q-186 -95 -502 -95q-313 0 -448.5 130t-135.5 399zM291 1257v129q0 80 80 80h141q80 0 80 -80v-129 q0 -79 -80 -79h-141q-80 0 -80 79zM504 621h143q70 0 88.5 12.5t18.5 64.5q0 48 -23.5 63t-85.5 15q-81 2 -109 -26t-32 -129zM678 1257v129q0 80 80 80h141q80 0 80 -80v-129q0 -79 -80 -79h-141q-80 0 -80 79z" />
<glyph unicode="&#x452;" horiz-adv-x="1286" d="M20 956v185h115v293h432v-293h340v-185h-340v-12q0 -120 -20 -225q186 149 381 149q149 0 225 -72.5t76 -213.5v-582h-432v444q0 34 -17 48t-57 14q-80 0 -156 -25v-481h-432v956h-115z" />
<glyph unicode="&#x453;" horiz-adv-x="1009" d="M88 0v770q0 140 72.5 205t226.5 65q148 0 222.5 -1t193.5 -9t196 -24l-20 -299h-395q-38 0 -54 -14t-16 -48v-645h-426zM307 1266l477 307l162 -273l-522 -210z" />
<glyph unicode="&#x454;" horiz-adv-x="1155" d="M53 508q0 155 32 257.5t106 167.5t187 92.5t284 27.5q273 0 442 -64l-33 -258q-135 -2 -409 -2q-83 2 -119 -16.5t-49 -81.5h512v-225h-517q4 -32 13.5 -52.5t21 -32.5t34.5 -17.5t44 -7t60 -1.5q250 0 419 8l31 -264q-172 -68 -450 -68q-335 0 -472 120t-137 417z" />
<glyph unicode="&#x455;" horiz-adv-x="1132" d="M49 754q0 72 24 125.5t78 93.5t147 60t226 20q127 0 279 -12.5t246 -32.5l-27 -250h-404h-26q-88 0 -107.5 -3.5t-19.5 -21.5q0 -13 11 -18t54 -16q10 -3 16.5 -4.5t18 -4.5t21.5 -6l235 -59q141 -40 206 -110t65 -200q0 -192 -112 -265t-384 -73q-285 0 -533 43l27 250 h365q153 0 187 4.5t34 26.5q0 4 -1 7.5t-3.5 6t-6 5t-10 5t-13 4t-18 5t-22 6t-27 7t-32.5 9.5l-226 62q-82 24 -136 57t-82.5 77t-39 90.5t-10.5 111.5z" />
<glyph unicode="&#x456;" horiz-adv-x="632" d="M100 1262v104q0 127 125 127h183q124 0 124 -127v-104q0 -127 -124 -127h-183q-125 0 -125 127zM102 0v1024h428v-1024h-428z" />
<glyph unicode="&#x457;" horiz-adv-x="636" d="M-29 1257v129q0 80 80 80h142q79 0 79 -80v-129q0 -79 -79 -79h-142q-80 0 -80 79zM102 0v1024h433v-1024h-433zM358 1257v129q0 80 80 80h142q79 0 79 -80v-129q0 -79 -79 -79h-142q-80 0 -80 79z" />
<glyph unicode="&#x458;" horiz-adv-x="632" d="M-39 -201q79 79 110 153.5t31 166.5v905h428v-905q0 -164 -89.5 -305t-241.5 -203zM94 1282v104q0 127 125 127h182q125 0 125 -127v-104q0 -127 -125 -127h-182q-125 0 -125 127z" />
<glyph unicode="&#x459;" horiz-adv-x="1726" d="M27 287q35 3 55 6.5t44.5 13t39.5 29t22 49.5q29 119 58 375q27 264 295 264h587v-330h56q120 0 202.5 -10.5t144 -33.5t96 -65t51 -101t16.5 -144q0 -199 -102.5 -275.5t-338.5 -76.5q-200 0 -508 12h-12v770h-49q-41 0 -59.5 -18.5t-22.5 -67.5q-9 -94 -29.5 -220.5 t-42.5 -203.5q-54 -181 -173 -242t-304 -26zM1128 254h56q65 0 82.5 19t17.5 83q0 66 -18 84.5t-82 18.5h-56v-205z" />
<glyph unicode="&#x45a;" horiz-adv-x="1705" d="M94 0v1024h391v-358h224v358h401v-360h76q280 0 384.5 -68t104.5 -256q0 -199 -97.5 -275.5t-322.5 -76.5q-351 0 -538 12h-8v412h-224v-412h-391zM1110 254h76q50 0 65 17.5t15 72.5t-14 70.5t-66 15.5h-76v-176z" />
<glyph unicode="&#x45b;" horiz-adv-x="1286" d="M20 956v185h115v293h432v-293h340v-185h-340v-12q0 -120 -20 -225q186 149 381 149q149 0 225 -72.5t76 -213.5v-463q0 -164 -84.5 -305t-229.5 -203l-239 188q70 77 95.5 151t25.5 169v325q0 34 -17 48t-57 14q-80 0 -156 -25v-481h-432v956h-115z" />
<glyph unicode="&#x45c;" horiz-adv-x="1216" d="M94 0v1024h428v-223q0 -69 -14 -135h37q30 0 45.5 2t32 11t25 26.5t19.5 49t22 78.5t27 116q11 48 17 75h434q-16 -55 -42 -146q-27 -94 -37.5 -131t-31.5 -84.5t-31.5 -58.5t-42 -28.5t-57.5 -21t-83 -12.5l-21 -3v-13q125 -20 147 -27q60 -18 94 -73q37 -60 97 -274 q11 -39 43 -152h-446q-70 265 -92 325t-58 66h-94q10 -48 10 -80v-311h-428zM428 1266l477 307l162 -273l-522 -210z" />
<glyph unicode="&#x45d;" horiz-adv-x="1294" d="M94 0v1024h381v-428q0 -65 -16 -166h10q17 59 73 150l3 3t2 3l2 4l270 434h381v-1024l-383 -4v401q0 71 17 193h-11q-30 -100 -86 -184l-262 -406h-381zM215 1300l162 273l477 -307l-117 -176z" />
<glyph unicode="&#x45e;" horiz-adv-x="1232" d="M-6 1024h457l120 -565q12 -78 27 -193h18q18 67 43 193l121 565h457l-326 -995q-32 -107 -74.5 -184t-96.5 -124.5t-108.5 -75t-127.5 -48.5q-187 -52 -422 0l33 272q207 -3 303 45q47 23 86 86h-72q-49 0 -85 27t-50 73zM248 1479h260q-11 -90 15.5 -124t90.5 -34 q63 0 89.5 34t15.5 124h260q17 -88 -22.5 -169.5t-130.5 -133.5t-212 -52q-92 0 -168 31t-122.5 80.5t-67 113.5t-8.5 130z" />
<glyph unicode="&#x45f;" horiz-adv-x="1280" d="M94 0v1024h426v-745h244v745h422v-1024h-377l-25 -332h-288l-27 332h-375z" />
<glyph unicode="&#x490;" horiz-adv-x="1136" d="M111 0v1100q0 142 92 231.5t237 89.5q242 0 363 -4l31 309h294v-333l-20 -312h-467q-39 0 -62.5 -20t-23.5 -53v-1008h-444z" />
<glyph unicode="&#x491;" horiz-adv-x="1009" d="M88 0v770q0 140 72.5 205t226.5 65q201 0 301 -4l31 279h280v-309l-20 -299h-395q-38 0 -54 -14t-16 -48v-645h-426z" />
<glyph unicode="&#x4b0;" horiz-adv-x="1347" d="M-16 1413h456l178 -444q6 -15 11.5 -32.5t9 -31.5t7.5 -35.5t5.5 -32.5t5.5 -35.5t5 -31.5h26q24 150 43 201l176 442h457l-381 -795h186v-212h-272v-406h-444v406h-273v212h185z" />
<glyph unicode="&#x4b1;" horiz-adv-x="1339" d="M-14 1024h456l174 -434q11 -27 18.5 -59.5t14.5 -78.5t10 -61h25q3 15 10 61.5t14.5 79.5t18.5 60l172 432h457l-377 -784h184v-254h-268v-355h-446v355h-269v254h182z" />
<glyph unicode="&#x4b6;" horiz-adv-x="1513" d="M72 811v602h444v-506q-4 -61 20.5 -81.5t100.5 -20.5q119 0 215 29v579h444v-1122h193v-600h-322l-30 309h-285v535q-96 -43 -199.5 -68t-181.5 -25q-207 0 -303 89t-96 280z" />
<glyph unicode="&#x4b7;" horiz-adv-x="1323" d="M63 532v492h429v-367q0 -31 15.5 -46t51.5 -15q71 0 148 27v401h426v-745h163v-558h-284l-29 279h-276v340q-142 -51 -295 -51q-180 0 -264.5 58.5t-84.5 184.5z" />
<glyph unicode="&#x4ba;" horiz-adv-x="1421" d="M117 0v1413h444v-534q97 43 202.5 67.5t184.5 24.5q207 0 304.5 -89.5t97.5 -279.5v-602h-445v506q4 61 -21 81.5t-102 20.5q-128 0 -221 -28v-580h-444z" />
<glyph unicode="&#x4c0;" horiz-adv-x="673" d="M117 0v1413h440v-1413h-440z" />
<glyph unicode="&#x2000;" horiz-adv-x="979" />
<glyph unicode="&#x2001;" horiz-adv-x="1958" />
<glyph unicode="&#x2002;" horiz-adv-x="979" />
<glyph unicode="&#x2003;" horiz-adv-x="1958" />
<glyph unicode="&#x2004;" horiz-adv-x="652" />
<glyph unicode="&#x2005;" horiz-adv-x="489" />
<glyph unicode="&#x2006;" horiz-adv-x="326" />
<glyph unicode="&#x2007;" horiz-adv-x="326" />
<glyph unicode="&#x2008;" horiz-adv-x="244" />
<glyph unicode="&#x2009;" horiz-adv-x="391" />
<glyph unicode="&#x200a;" horiz-adv-x="108" />
<glyph unicode="&#x2010;" horiz-adv-x="776" d="M90 401v250h596v-250h-596z" />
<glyph unicode="&#x2011;" horiz-adv-x="776" d="M90 401v250h596v-250h-596z" />
<glyph unicode="&#x2012;" horiz-adv-x="776" d="M90 401v250h596v-250h-596z" />
<glyph unicode="&#x2013;" horiz-adv-x="1083" d="M90 401v250h903v-250h-903z" />
<glyph unicode="&#x2014;" horiz-adv-x="1677" d="M90 401v250h1497v-250h-1497z" />
<glyph unicode="&#x2018;" horiz-adv-x="452" d="M68 942v119q0 132 28.5 219t89.5 174l140 -45q-31 -97 -35 -256q105 0 108 -119l-4 -92q-1 -76 -28.5 -104.5t-98.5 -28.5h-71q-71 0 -99.5 28.5t-29.5 104.5z" />
<glyph unicode="&#x2019;" horiz-adv-x="446" d="M51 1208l4 92q1 76 28.5 105t98.5 29h72q71 0 99.5 -29t29.5 -105v-118q0 -132 -29 -219t-90 -175l-139 46q31 97 35 256q-106 0 -109 118z" />
<glyph unicode="&#x201a;" horiz-adv-x="475" d="M70 131l4 100q1 85 28.5 116.5t98.5 31.5h71q71 0 99.5 -32t29.5 -116v-131q0 -145 -28.5 -239t-89.5 -193l-140 51q31 106 35 281q-105 0 -108 131z" />
<glyph unicode="&#x201c;" horiz-adv-x="860" d="M68 942v119q0 132 28.5 219t89.5 174l140 -45q-31 -97 -35 -256q105 0 108 -119l-4 -92q-1 -76 -28.5 -104.5t-98.5 -28.5h-71q-71 0 -99.5 28.5t-29.5 104.5zM475 942v119q0 132 29 218.5t90 174.5l139 -45q-31 -97 -35 -256q106 0 109 -119l-4 -92q-1 -76 -28.5 -104.5 t-98.5 -28.5h-72q-71 0 -99.5 28.5t-29.5 104.5z" />
<glyph unicode="&#x201d;" horiz-adv-x="854" d="M51 1208l4 92q1 76 28.5 105t98.5 29h72q71 0 99.5 -29t29.5 -105v-118q0 -132 -29 -219t-90 -175l-139 46q31 97 35 256q-106 0 -109 118zM459 1208l4 92q1 76 28.5 105t98.5 29h72q71 0 99.5 -29t29.5 -105v-118q0 -132 -29 -219t-90 -175l-140 46q31 97 35 256 q-105 0 -108 118z" />
<glyph unicode="&#x201e;" horiz-adv-x="878" d="M68 88l4 92q1 76 28.5 104.5t98.5 28.5h71q71 0 99.5 -28.5t29.5 -104.5v-119q0 -132 -28.5 -219t-89.5 -174l-140 45q31 97 35 256q-105 0 -108 119zM475 88l4 92q1 76 28.5 104.5t98.5 28.5h72q71 0 99.5 -28.5t29.5 -104.5v-119q0 -132 -29 -218.5t-90 -174.5l-139 45 q31 97 35 256q-106 0 -109 119z" />
<glyph unicode="&#x2022;" horiz-adv-x="780" d="M115 539v34q0 140 57.5 195t208.5 55h35q140 0 195 -55.5t55 -194.5v-34q0 -151 -55 -209t-195 -58h-35q-152 0 -209 57.5t-57 209.5z" />
<glyph unicode="&#x2026;" horiz-adv-x="1894" d="M53 147v84q0 85 31.5 116.5t116.5 31.5h96q85 0 116 -31.5t31 -116.5v-84q0 -85 -31 -116t-116 -31h-96q-85 0 -116.5 31t-31.5 116zM735 147v84q0 85 31.5 116.5t116.5 31.5h96q85 0 116 -31.5t31 -116.5v-84q0 -85 -31 -116t-116 -31h-96q-85 0 -116.5 31t-31.5 116z M1417 147v84q0 85 31.5 116.5t116.5 31.5h96q85 0 116 -31.5t31 -116.5v-84q0 -85 -31 -116t-116 -31h-96q-85 0 -116.5 31t-31.5 116z" />
<glyph unicode="&#x202f;" horiz-adv-x="391" />
<glyph unicode="&#x2039;" horiz-adv-x="649" d="M43 469v90l324 404l225 -142l-176 -307l176 -319l-225 -142z" />
<glyph unicode="&#x203a;" horiz-adv-x="649" d="M57 195l179 319l-179 307l226 142l323 -404v-90l-323 -416z" />
<glyph unicode="&#x205f;" horiz-adv-x="489" />
<glyph unicode="&#x20ac;" horiz-adv-x="1318" d="M55 453v225h981l-22 -225h-346q20 -56 55.5 -85t93.5 -38q65 -11 194.5 -6t225.5 22l33 -303q-174 -68 -418 -68q-304 0 -459 115t-198 363h-140zM57 739v226h138q43 244 198.5 358.5t458.5 114.5q209 0 379 -56l-35 -303q-276 27 -379 4q-55 -12 -89.5 -39.5 t-55.5 -78.5h399l-22 -226h-992z" />
<glyph unicode="&#x2122;" horiz-adv-x="2039" d="M90 1206v219h729v-219h-217v-559h-293v559h-219zM872 647l25 678q3 100 98 100h260q45 0 74 -23t35 -67l31 -252q3 -22 6 -63.5t4 -54.5h8q2 19 5 59t5 59l27 252q6 44 35.5 67t75.5 23h264q94 0 100 -100l23 -678h-265l-24 559h-17l-45 -334q-12 -88 -110 -88h-156 q-98 0 -110 88l-47 334h-17l-18 -559h-267z" />
<glyph unicode="&#x25fc;" horiz-adv-x="1024" d="M0 0v1024h1024v-1024h-1024z" />
</font>
</defs>
</svg>
